<?xml version="1.0" standalone="no"?><!DOCTYPE svg PUBLIC "-//W3C//DTD SVG 1.1//EN" "http://www.w3.org/Graphics/SVG/1.1/DTD/svg11.dtd"><svg t="1604039466454" class="icon" viewBox="0 0 1024 1024" version="1.1" xmlns="http://www.w3.org/2000/svg" p-id="2824" xmlns:xlink="http://www.w3.org/1999/xlink" width="1024" height="1024"><defs><style type="text/css"></style></defs><path d="M572.224 361.19466667l-120.832 0.18773333-47.14666667-113.8688z" fill="#F6851B" p-id="2825"></path><path d="M404.24533333 247.5136l216.7488-0.45226667-48.77013333 114.13333334z" fill="#F6851B" p-id="2826"></path><path d="M451.392 361.3824L147.26826667 132.64213333l256.97706666 114.87146667z" fill="#E4761B" p-id="2827"></path><path d="M876.79786667 130.70933333l-304.576 230.48533334 48.77226666-114.13333334z" fill="#E2761B" p-id="2828"></path><path d="M270.64106667 458.77973333l-137.8048-35.89973333L125.44 390.74133333zM137.5488 461.48906667l-4.71466667-38.60906667 137.80693334 35.89973333zM156.82773333 517.2544l113.81333334-58.47466667 59.17866666 10.51093334z" fill="#763D16" p-id="2829"></path><path d="M137.5488 461.48906667l133.09226667-2.70933334-113.81333334 58.47466667zM754.80106667 458.26986667l145.38666666-68.60373334-7.45813333 32.27733334zM887.9488 460.70613333l-133.14773333-2.43626666 137.92853333-36.32426667zM868.55466667 516.70613333l-173.71733334-47.78026666 59.96373334-10.656z" fill="#763D16" p-id="2830"></path><path d="M887.9488 460.70613333l-19.39413333 56-113.7536-58.43626666zM276.50773333 284.01066667l-5.86666666 174.76906666L125.44 390.74133333zM329.82186667 469.29066667l-59.1808-10.51093334 5.86666666-174.76906666z" fill="#763D16" p-id="2831"></path><path d="M333.26933333 824.46933333l45.16266667-23.89973333 7.89973333-1.86026667zM639.24053333 798.8608l6.97386667 1.87093333 44.05333333 23.99573334z" fill="#E2761B" p-id="2832"></path><path d="M900.18773333 389.66613333l-145.38666666 68.60373334-7.04-175.15946667z" fill="#763D16" p-id="2833"></path><path d="M747.76106667 283.1104l7.04 175.15946667-59.96586667 10.656z" fill="#763D16" p-id="2834"></path><path d="M333.26933333 824.46933333l-193.26506666 71.392L92.65066667 702.528z" fill="#E4761B" p-id="2835"></path><path d="M107.49013333 402.36373333l17.952-11.6224 7.39413334 32.13866667z" fill="#763D16" p-id="2836"></path><path d="M933.73226667 702.63893333l-47.40266667 194.02666667-196.06186667-71.936z" fill="#E4761B" p-id="2837"></path><path d="M276.50773333 284.01066667l174.88426667 77.37173333-121.57013333 107.90826667zM137.5488 461.48906667L112.46933333 436.992l20.3648-14.11413333zM694.8352 468.92586667L572.224 361.19466667l175.53706667-78.0864zM918.1568 401.2864l-25.4272 20.6592 7.45813333-32.27733333zM125.44 390.74133333l-22.35733333-134.1952 173.42506666 27.46453334zM156.82773333 517.2544l-35.9424-45.024 16.66133334-10.74133333z" fill="#763D16" p-id="2838"></path><path d="M887.9488 460.70613333l4.7808-38.76266666 20.37973333 14.12053333zM747.76106667 283.1104l174.33813333-28.2368-21.91146667 134.79253333z" fill="#763D16" p-id="2839"></path><path d="M275.75253333 529.63413333L92.65066667 702.52586667l64.17493333-185.27146667z" fill="#F6851B" p-id="2840"></path><path d="M868.55466667 516.70613333l19.392-56 16.6784 10.74773334z" fill="#763D16" p-id="2841"></path><path d="M246.9248 680.10453333l-154.272 22.42133334 183.09973333-172.89173334z" fill="#F6851B" p-id="2842"></path><path d="M92.6528 702.528l154.272-22.42346667 86.34666667 144.36266667z" fill="#E4761B" p-id="2843"></path><path d="M747.30453333 529.2992l121.25013334-12.59306667 65.1776 185.9328zM747.30453333 529.2992l186.42773334 173.33973333-157.57653334-22.5216z" fill="#F6851B" p-id="2844"></path><path d="M690.26773333 824.72746667l85.888-144.61013334 157.57653334 22.5216z" fill="#E4761B" p-id="2845"></path><path d="M156.82773333 517.2544l172.992-47.96373333-54.0672 60.34346666zM868.55466667 516.70613333l-121.25013334 12.59306667-52.46933333-60.37333333z" fill="#F6851B" p-id="2846"></path><path d="M329.82186667 469.29066667l121.57013333-107.90826667 9.1392 169.20746667zM460.5312 530.58986667l-184.77866667-0.95573334 54.06933334-60.34346666zM694.8352 468.92586667l52.46933333 60.37333333-186.00746666 1.22026667zM561.29706667 530.51733333l10.92693333-169.32266666 122.6112 107.7312z" fill="#E4761B" p-id="2847"></path><path d="M147.26826667 132.64213333L451.392 361.3824l-174.88426667-77.37173333zM276.50773333 284.01066667l-173.42293333-27.46453334 44.18133333-123.904zM876.79786667 130.70933333l45.30133333 124.16426667-174.33813333 28.2368zM747.76106667 283.1104l-175.53706667 78.0864L876.79786667 130.70933333z" fill="#763D16" p-id="2848"></path><path d="M451.392 361.3824l120.832-0.1856-10.92693333 169.32266667z" fill="#F6851B" p-id="2849"></path><path d="M561.29706667 530.51733333l-100.76586667 0.07253334-9.1392-169.20746667z" fill="#F6851B" p-id="2850"></path><path d="M333.26933333 824.46933333l-86.34453333-144.3648 103.7504-4.9536zM690.26773333 824.72746667l-18.93973333-149.57653334 104.82773333 4.9664zM349.17546667 600.82133333l-73.42293334-71.18933333 184.77866667 0.96z" fill="#CD6116" p-id="2851"></path><path d="M275.75253333 529.63413333l74.92266667 145.5168-103.7504 4.9536z" fill="#F6851B" p-id="2852"></path><path d="M275.75253333 529.63413333l73.42293334 71.18933334 1.49973333 74.32746666z" fill="#E4751F" p-id="2853"></path><path d="M561.29706667 530.51733333l186.00533333-1.21813333-74.21866667 71.4048z" fill="#CD6116" p-id="2854"></path><path d="M776.15573333 680.11733333l-104.82773333-4.9664L747.30666667 529.30133333z" fill="#F6851B" p-id="2855"></path><path d="M747.30453333 529.2992l-75.97653333 145.85173333 1.75573333-74.44693333z" fill="#E4751F" p-id="2856"></path><path d="M369.67466667 845.5488l-36.4032-21.0816 104.52266666 7.49226667zM580.97066667 832.06826667l109.29706666-7.33866667-37.54453333 21.056z" fill="#C0AD9E" p-id="2857"></path><path d="M460.5312 530.58986667l-44.83413333 39.21493333-66.5216 31.01866667z" fill="#CD6116" p-id="2858"></path><path d="M436.69546667 790.58346667l1.09866666 41.376-104.52266666-7.49226667z" fill="#D7C1B3" p-id="2859"></path><path d="M673.08373333 600.704l-66.77333333-30.99733333-45.01333333-39.18933334z" fill="#CD6116" p-id="2860"></path><path d="M446.03733333 713.14773333l-112.768 111.31946667 17.408-149.31626667z" fill="#E4761B" p-id="2861"></path><path d="M333.26933333 824.46933333l112.768-111.3216-9.34186666 77.43573334zM581.1712 790.66453333l109.09653333 34.06293334-109.29493333 7.3408z" fill="#D7C1B3" p-id="2862"></path><path d="M571.71413333 713.1712l99.61386667-38.02026667 18.93973333 149.57653334z" fill="#E4761B" p-id="2863"></path><path d="M690.26773333 824.72746667l-109.09653333-34.06293334-9.45706667-77.49333333z" fill="#D7C1B3" p-id="2864"></path><path d="M350.67733333 675.15093333l-1.50186666-74.3296 93.5104 22.62826667z" fill="#F6851B" p-id="2865"></path><path d="M442.68586667 623.4496l-93.5104-22.62826667 66.5216-31.01653333z" fill="#233447" p-id="2866"></path><path d="M671.328 675.15093333l-92.50133333-51.73333333 94.25706666-22.7136z" fill="#F6851B" p-id="2867"></path><path d="M578.82666667 623.41546667l27.48586666-53.7088 66.7712 30.99733333z" fill="#233447" p-id="2868"></path><path d="M415.69706667 569.8048l44.83413333-39.21493333-17.84533333 92.85973333zM606.31253333 569.70666667l-27.48586666 53.7088-17.5296-92.896z" fill="#CD6116" p-id="2869"></path><path d="M464.1536 583.94666667l-3.6224-53.35466667 100.76586667-0.07253333z" fill="#F6851B" p-id="2870"></path><path d="M442.68586667 623.4496l17.84533333-92.85973333 3.6224 53.3568z" fill="#E4751F" p-id="2871"></path><path d="M561.29706667 530.51733333l-4.3328 53.3888-92.81066667 0.04266667z" fill="#F6851B" p-id="2872"></path><path d="M578.82666667 623.41546667l-21.8624-39.50933334 4.3328-53.38666666z" fill="#E2761B" p-id="2873"></path><path d="M437.79413333 831.95733333l6.09493334 31.36853334-74.2144-17.77706667zM652.7232 845.7856l-78.07146667 17.66186667 6.32106667-31.3792z" fill="#C0AD9E" p-id="2874"></path><path d="M446.03733333 713.14773333l-95.36-37.99466666 92.00853334-51.70346667zM578.82666667 623.41546667l92.50133333 51.73546666-99.61386667 38.02026667z" fill="#F6851B" p-id="2875"></path><path d="M464.1536 583.94666667l-1.8944 117.9136-19.57333333-78.41066667z" fill="#E4751F" p-id="2876"></path><path d="M442.68586667 623.4496l19.57333333 78.41066667-16.224 11.28533333z" fill="#F6851B" p-id="2877"></path><path d="M556.96426667 583.90613333l21.8624 39.50933334-23.3472 78.4576z" fill="#E4751F" p-id="2878"></path><path d="M571.71413333 713.1712l-16.23466666-11.29813333 23.3472-78.4576z" fill="#F6851B" p-id="2879"></path><path d="M464.1536 583.94666667l92.81066667-0.04053334-1.4848 117.96693334zM555.47733333 701.87306667l-93.21813333-0.0128 1.8944-117.9136z" fill="#F6851B" p-id="2880"></path><path d="M443.88906667 863.32586667l-6.09493334-31.3664-1.09866666-41.376zM581.1712 790.66453333l-0.1984 41.40373334-6.32106667 31.3792z" fill="#C0AD9E" p-id="2881"></path><path d="M436.69546667 790.58346667l8.18773333-12.04053334-0.99413333 84.78293334zM443.88906667 863.32586667l0.99413333-84.78293334 127.66506667 0.064z" fill="#C0AD9E" p-id="2882"></path><path d="M572.54826667 778.60693333l2.10346666 84.84053334-130.76266666-0.1216zM574.65173333 863.44533333l-2.10346666-84.8384 8.62293333 12.0576z" fill="#C0AD9E" p-id="2883"></path><path d="M444.88533333 778.54293333l-8.18986666 12.04053334 9.33973333-77.43573334zM571.71413333 713.1712l9.45706667 77.49333333-8.62293333-12.0576zM460.928 708.90026667l1.3312-7.04 93.22026667 0.0128z" fill="#161616" p-id="2884"></path><path d="M446.03733333 713.14773333l16.22186667-11.28746666-1.32906667 7.04z" fill="#161616" p-id="2885"></path><path d="M555.47733333 701.87306667l0.46506667 7.04426666-95.01226667-0.01706666zM555.9424 708.91733333l-0.46293333-7.04426666 16.23466666 11.29813333zM446.03733333 713.14773333l4.50133334 7.4624-5.65333334 57.9328z" fill="#161616" p-id="2886"></path><path d="M460.928 708.90026667l-10.38933333 11.70986666-4.50133334-7.4624zM572.54826667 778.60693333l-6.21013334-57.9712 5.376-7.46666666z" fill="#161616" p-id="2887"></path><path d="M571.71413333 713.1712l-5.376 7.46453333-10.39573333-11.7184zM572.54826667 778.60693333l-127.66506667-0.064 5.65333333-57.9328zM450.53866667 720.61013333l115.79733333 0.0256 6.21226667 57.9712zM450.53866667 720.61013333l10.38933333-11.70986666 95.0144 0.01706666z" fill="#161616" p-id="2888"></path><path d="M555.9424 708.91733333l10.39573333 11.7184-115.79946666-0.0256z" fill="#161616" p-id="2889"></path></svg>